<svg width="14" height="16" viewBox="0 0 14 16" fill="none" xmlns="http://www.w3.org/2000/svg">
<path fill-rule="evenodd" clip-rule="evenodd" d="M4.09243 2.3965V1.921C4.09243 1.0094 4.79963 0.25 5.7011 0.25H8.17543C9.0766 0.25 9.7841 1.00759 9.7841 1.921V2.3965H12.8767C13.2909 2.3965 13.6267 2.73229 13.6267 3.1465C13.6267 3.56071 13.2909 3.8965 12.8767 3.8965H12.6855L12.125 13.2523C12.0577 14.4677 11.147 15.4855 10.0112 15.4855H3.8655C2.73074 15.4855 1.8199 14.4688 1.75184 13.2557L1.19113 3.8965H1C0.585786 3.8965 0.25 3.56071 0.25 3.1465C0.25 2.73229 0.585786 2.3965 1 2.3965H4.09243ZM8.2841 2.3965V1.921C8.2841 1.81395 8.22437 1.75 8.17543 1.75H5.7011C5.65287 1.75 5.59243 1.8149 5.59243 1.921V2.3965H8.2841ZM2.69382 3.8965H11.1828L10.6275 13.1659C10.6013 13.6388 10.2911 13.9855 10.0112 13.9855H3.8655C3.58602 13.9855 3.27571 13.6391 3.24932 13.1688L2.69382 3.8965ZM4.6819 5.3798C4.6819 4.96559 5.01769 4.6298 5.4319 4.6298C5.84611 4.6298 6.1819 4.96559 6.1819 5.3798V12.5058C6.1819 12.92 5.84611 13.2558 5.4319 13.2558C5.01769 13.2558 4.6819 12.92 4.6819 12.5058V5.3798ZM8.4447 4.6298C8.03049 4.6298 7.6947 4.96559 7.6947 5.3798V12.5058C7.6947 12.92 8.03049 13.2558 8.4447 13.2558C8.85891 13.2558 9.1947 12.92 9.1947 12.5058V5.3798C9.1947 4.96559 8.85891 4.6298 8.4447 4.6298Z" fill="#979797"/>
</svg>
