<svg width="23" height="23" viewBox="0 0 23 23" fill="none" xmlns="http://www.w3.org/2000/svg">
<g filter="url(#filter0_d_27_2673)">
<path d="M17.323 2.55596C16.9865 2.21919 16.587 1.95203 16.1472 1.76975C15.7074 1.58747 15.2361 1.49365 14.76 1.49365C14.284 1.49365 13.8126 1.58747 13.3728 1.76975C12.933 1.95203 12.5335 2.21919 12.197 2.55596L11.497 3.25596L10.797 2.55596C10.4604 2.21938 10.0609 1.95239 9.62109 1.77024C9.18133 1.58808 8.71 1.49433 8.234 1.49433C7.75801 1.49433 7.28668 1.58808 6.84692 1.77024C6.40716 1.95239 6.00758 2.21938 5.671 2.55596C5.33443 2.89254 5.06744 3.29211 4.88528 3.73187C4.70313 4.17163 4.60937 4.64296 4.60938 5.11896C4.60938 5.59495 4.70313 6.06628 4.88528 6.50604C5.06744 6.9458 5.33443 7.34538 5.671 7.68196L6.371 8.38196L11.497 13.508L16.623 8.38196L17.323 7.68196C17.6598 7.34549 17.9269 6.94595 18.1092 6.50617C18.2915 6.0664 18.3853 5.59501 18.3853 5.11896C18.3853 4.6429 18.2915 4.17152 18.1092 3.73174C17.9269 3.29197 17.6598 2.89243 17.323 2.55596V2.55596Z" stroke="white" stroke-linecap="round" stroke-linejoin="round" shape-rendering="crispEdges"/>
</g>
<defs>
<filter id="filter0_d_27_2673" x="0.109375" y="0.993652" width="22.7759" height="21.0143" filterUnits="userSpaceOnUse" color-interpolation-filters="sRGB">
<feFlood flood-opacity="0" result="BackgroundImageFix"/>
<feColorMatrix in="SourceAlpha" type="matrix" values="0 0 0 0 0 0 0 0 0 0 0 0 0 0 0 0 0 0 127 0" result="hardAlpha"/>
<feOffset dy="4"/>
<feGaussianBlur stdDeviation="2"/>
<feComposite in2="hardAlpha" operator="out"/>
<feColorMatrix type="matrix" values="0 0 0 0 0 0 0 0 0 0 0 0 0 0 0 0 0 0 0.25 0"/>
<feBlend mode="normal" in2="BackgroundImageFix" result="effect1_dropShadow_27_2673"/>
<feBlend mode="normal" in="SourceGraphic" in2="effect1_dropShadow_27_2673" result="shape"/>
</filter>
</defs>
</svg>
