<svg width="20" height="20" viewBox="0 0 20 20" fill="none" xmlns="http://www.w3.org/2000/svg">
<path d="M10.8509 0.555469L13.1571 5.22891C13.3025 5.52188 13.5814 5.72578 13.9071 5.77266L19.0634 6.52266C19.879 6.64219 20.2048 7.64531 19.6142 8.21953L15.8829 11.857C15.6485 12.0867 15.5407 12.4148 15.597 12.7383L16.4782 17.8734C16.6165 18.6867 15.7634 19.3055 15.0345 18.9234L10.422 16.4977C10.1314 16.3453 9.78448 16.3453 9.4962 16.4977L4.88136 18.9234C4.15011 19.3078 3.29698 18.6867 3.43761 17.8734L4.31886 12.7383C4.37511 12.4148 4.26729 12.0867 4.03292 11.857L0.301668 8.21953C-0.288957 7.64297 0.0368239 6.63984 0.852449 6.52266L6.0087 5.77266C6.33214 5.72578 6.61339 5.52188 6.7587 5.22891L9.06495 0.555469C9.43058 -0.185156 10.4853 -0.185156 10.8509 0.555469Z" fill="#FEC54B"/>
</svg>
